<?xml version="1.0" encoding="UTF-8" standalone="no"?>
<!DOCTYPE svg PUBLIC "-//W3C//DTD SVG 1.1//EN" "http://www.w3.org/Graphics/SVG/1.1/DTD/svg11.dtd">
<svg width="100%" height="100%" viewBox="0 0 1280 279" version="1.1" xmlns="http://www.w3.org/2000/svg" xmlns:xlink="http://www.w3.org/1999/xlink" xml:space="preserve" xmlns:serif="http://www.serif.com/" style="fill-rule:evenodd;clip-rule:evenodd;stroke-linejoin:round;stroke-miterlimit:2;">
    <g transform="matrix(1,0,0,1,-1330,0)">
        <g id="logo" transform="matrix(1,0,0,0.387141,0,0)">
            <rect x="1330" y="0" width="1280" height="720" style="fill:none;"/>
            <clipPath id="_clip1">
                <rect x="1330" y="0" width="1280" height="720"/>
            </clipPath>
            <g clip-path="url(#_clip1)">
                <g transform="matrix(2.34579,0,0,6.05926,454.645,-1821.33)">
                    <g transform="matrix(0.879722,0,0,0.879722,146.458,100.634)">
                        <path d="M257.698,360L292.966,360L292.966,321.46L308.418,321.46L334.051,360L374.773,360L344.413,315.642C360.229,308.916 370.592,296.009 370.592,276.557L370.592,276.193C370.592,263.649 366.774,253.833 359.32,246.561C350.776,237.835 337.323,232.744 317.871,232.744L257.698,232.744L257.698,360ZM292.966,293.827L292.966,263.286L316.053,263.286C327.87,263.286 335.142,268.376 335.142,278.375L335.142,278.738C335.142,288.01 328.234,293.827 316.235,293.827L292.966,293.827Z" style="fill:white;fill-rule:nonzero;"/>
                    </g>
                    <g transform="matrix(0.879722,0,0,0.879722,146.458,100.634)">
                        <path d="M433.31,362.363C452.944,362.363 466.579,354.364 476.032,342.366L456.944,326.55C449.854,333.458 443.309,336.549 435.128,336.549C424.402,336.549 416.585,331.095 413.858,320.369L479.668,320.369C479.85,318.006 479.85,315.461 479.85,313.279C479.85,284.374 464.215,259.468 430.22,259.468C401.133,259.468 380.59,282.192 380.59,310.916L380.59,311.279C380.59,341.821 402.405,362.363 433.31,362.363ZM413.313,302.735C415.131,292.009 421.312,284.919 430.402,284.919C439.855,284.919 446.218,291.827 447.49,302.735L413.313,302.735Z" style="fill:white;fill-rule:nonzero;"/>
                    </g>
                    <g transform="matrix(0.879722,0,0,0.879722,146.458,100.634)">
                        <path d="M533.66,362.182C557.657,362.182 573.837,350.91 573.837,329.277L573.837,328.913C573.837,309.825 558.384,303.099 538.932,297.645C528.57,294.554 522.935,292.736 522.935,288.919L522.935,288.555C522.935,285.828 525.662,283.828 530.934,283.828C538.751,283.828 549.84,287.283 560.021,292.918L571.837,271.103C560.566,263.831 545.659,259.65 531.297,259.65C508.573,259.65 491.848,271.285 491.848,292.191L491.848,292.555C491.848,312.37 507.3,318.915 526.752,324.005C537.115,326.914 542.568,328.55 542.568,332.367L542.568,332.731C542.568,336.185 539.841,338.003 533.842,338.003C523.662,338.003 511.3,334.185 500.029,326.732L487.121,347.638C500.756,357.455 517.117,362.182 533.66,362.182Z" style="fill:white;fill-rule:nonzero;"/>
                    </g>
                    <g transform="matrix(0.879722,0,0,0.879722,146.458,100.634)">
                        <path d="M638.192,362.363C669.824,362.363 692.73,338.912 692.73,310.916L692.73,310.552C692.73,282.556 670.006,259.468 638.555,259.468C606.923,259.468 584.017,282.919 584.017,310.916L584.017,311.279C584.017,339.276 606.742,362.363 638.192,362.363ZM638.555,333.095C626.375,333.095 617.649,322.914 617.649,310.916L617.649,310.552C617.649,298.736 625.648,288.737 638.192,288.737C650.372,288.737 659.098,298.917 659.098,310.916L659.098,311.279C659.098,323.096 651.099,333.095 638.555,333.095Z" style="fill:white;fill-rule:nonzero;"/>
                    </g>
                    <g transform="matrix(0.879722,0,0,0.879722,146.458,100.634)">
                        <rect x="708.001" y="227.291" width="34.541" height="132.709" style="fill:white;fill-rule:nonzero;"/>
                    </g>
                    <g transform="matrix(0.879722,0,0,0.879722,146.458,100.634)">
                        <path d="M793.625,360.727L825.076,360.727L877.961,227.291L842.147,227.291L809.623,319.096L790.717,261.65L754.358,261.65L793.625,360.727Z" style="fill:rgb(119,107,231);fill-rule:nonzero;"/>
                    </g>
                </g>
            </g>
        </g>
    </g>
</svg>
