<?xml version="1.0" encoding="utf-8"?>
<svg width="900px" height="300px" viewBox="0 0 900 300" version="1.1" xmlns:xlink="http://www.w3.org/1999/xlink" xmlns="http://www.w3.org/2000/svg">
  <defs>
    <path d="M892 0C896.419 0 900 3.58112 900 8L900 292C900 296.419 896.419 300 892 300L8 300C3.58112 300 0 296.419 0 292L0 8C0 3.58112 3.58112 0 8 0L892 0Z" id="path_1" />
    <path d="M331 0L331 0L331 72L0 72L0 0L331 0Z" id="path_2" />
    <path d="M0 0L331.006 0L331.006 71.9219L0 71.9219L0 0Z" id="path_3" />
    <clipPath id="clip_1">
      <use xlink:href="#path_1" clip-rule="evenodd" fill-rule="evenodd" />
    </clipPath>
    <clipPath id="clip_2">
      <use xlink:href="#path_2" clip-rule="evenodd" fill-rule="evenodd" />
    </clipPath>
    <clipPath id="clip_3">
      <use xlink:href="#path_3" clip-rule="evenodd" fill-rule="evenodd" />
    </clipPath>
  </defs>
  <g id="frame">
    <path d="M892 0C896.419 0 900 3.58112 900 8L900 292C900 296.419 896.419 300 892 300L8 300C3.58112 300 0 296.419 0 292L0 8C0 3.58112 3.58112 0 8 0L892 0Z" id="frame" fill="#32333D" stroke="none" />
    <g id="logo" clip-path="url(#clip_1)">
      <path d="M331 0L331 0L331 72L0 72L0 0L331 0Z" id="logo" fill="none" stroke="none" transform="translate(296 95)" />
      <g id="Group" clip-path="url(#clip_2)" transform="translate(296 95)">
        <g id="logo">
          <path d="M0 0L331 0L331 71.9333L0 71.9333L0 0Z" id="Rectangle" fill="none" fill-rule="evenodd" stroke="none" />
          <g id="Mask-Group">
            <path d="M0 0L331.006 0L331.006 71.9219L0 71.9219L0 0Z" id="Rectangle" fill="none" fill-rule="evenodd" stroke="none" />
            <g clip-path="url(#clip_3)">
              <g id="Group" transform="translate(0.00034832137 0.00040194028)">
                <g id="Group">
                  <path d="M0 70.6637L18.821 70.6637L18.821 50.1423L27.0671 50.1423L40.7463 70.6637L62.4779 70.6637L46.276 47.0443C54.7164 43.4629 60.2467 36.5903 60.2467 26.2327L60.2467 26.0389C60.2467 19.3595 58.2091 14.1328 54.2313 10.2607C49.6717 5.61434 42.4924 2.90353 32.1117 2.90353L0 2.90353L0 70.6637L0 70.6637ZM18.821 35.4285L18.821 19.1663L31.1416 19.1663C37.4478 19.1663 41.3285 21.8766 41.3285 27.2007L41.3285 27.394C41.3285 32.3311 37.642 35.4285 31.2387 35.4285L18.821 35.4285L18.821 35.4285Z" id="Group" fill="#FFFFFF" fill-rule="evenodd" stroke="none" />
                  <path d="M93.7162 71.9218C104.194 71.9218 111.47 67.6626 116.515 61.274L106.329 52.8524C102.545 56.5307 99.0522 58.1766 94.6864 58.1766C88.9624 58.1766 84.7908 55.2725 83.3355 49.5612L118.455 49.5612C118.553 48.303 118.553 46.9479 118.553 45.786C118.553 30.3949 110.209 17.1332 92.0672 17.1332C76.5447 17.1332 65.5818 29.233 65.5818 44.5278L65.5818 44.7211C65.5818 60.9838 77.2236 71.9218 93.7162 71.9218L93.7162 71.9218ZM83.0447 40.1716C84.0149 34.4603 87.3134 30.6851 92.1644 30.6851C97.209 30.6851 100.605 34.3634 101.283 40.1716L83.0447 40.1716L83.0447 40.1716Z" id="Group" fill="#FFFFFF" fill-rule="evenodd" stroke="none" />
                  <path d="M147.268 71.8254C160.075 71.8254 168.709 65.8234 168.709 54.3045L168.709 54.1107C168.709 43.9468 160.463 40.3654 150.082 37.4613C144.552 35.8155 141.545 34.8474 141.545 32.815L141.545 32.6212C141.545 31.1691 143 30.1042 145.814 30.1042C149.985 30.1042 155.903 31.9439 161.336 34.9444L167.642 23.3285C161.627 19.4564 153.672 17.2301 146.007 17.2301C133.881 17.2301 124.955 23.4254 124.955 34.5573L124.955 34.7511C124.955 45.302 133.201 48.787 143.582 51.4973C149.112 53.0463 152.022 53.9173 152.022 55.9498L152.022 56.1437C152.022 57.9828 150.567 58.9508 147.366 58.9508C141.933 58.9508 135.336 56.9178 129.321 52.9493L122.433 64.0812C129.709 69.3085 138.44 71.8254 147.268 71.8254L147.268 71.8254Z" id="Group" fill="#FFFFFF" stroke="none" />
                  <path d="M203.053 71.9218C219.933 71.9218 232.157 59.4348 232.157 44.5278L232.157 44.334C232.157 29.4269 220.03 17.1332 203.246 17.1332C186.366 17.1332 174.142 29.6202 174.142 44.5278L174.142 44.7211C174.142 59.6287 186.269 71.9218 203.053 71.9218L203.053 71.9218ZM203.246 56.3375C196.746 56.3375 192.09 50.9164 192.09 44.5278L192.09 44.334C192.09 38.0423 196.358 32.7181 203.053 32.7181C209.553 32.7181 214.209 38.1386 214.209 44.5278L214.209 44.7211C214.209 51.0133 209.94 56.3375 203.246 56.3375L203.246 56.3375Z" id="Group" fill="#FFFFFF" fill-rule="evenodd" stroke="none" />
                  <g id="Group" transform="matrix(0.99999994 0 0 0.99999994 240.3064 0)">
                    <path d="M0 0L18.4329 0L18.4329 70.6633L0 70.6633L0 0Z" id="Rectangle" fill="#FFFFFF" fill-rule="evenodd" stroke="none" />
                  </g>
                  <path d="M286 71.0508L302.784 71.0508L331.007 1.81899e-12L311.894 1.81899e-12L294.537 48.8836L284.448 18.2952L265.045 18.2952L286 71.0508L286 71.0508Z" id="Group" fill="#776BE7" stroke="none" />
                </g>
              </g>
            </g>
          </g>
        </g>
      </g>
    </g>
    <path d="M-234.077 640L-53.9282 640L249 -123L43.8552 -123L-142.444 401.95L-250.734 73.4683L-459 73.4683L-234.077 640L-234.077 640Z" id="Shape" fill="#776BE7" stroke="none" clip-path="url(#clip_1)" />
    <g id="Simple-Schedule-Conflict-Resol" transform="translate(337 194)" clip-path="url(#clip_1)">
      <g transform="translate(0, 3.3806818)" id="Simple-Schedule-Conflict-Resolver" fill="#B3B3B3">
        <path d="M6.80114 5.92614Q6.71165 5.17046 6.07528 4.75284Q5.43892 4.33523 4.5142 4.33523Q3.5 4.33523 2.88352 4.81499Q2.26705 5.29474 2.26705 6.02557Q2.26705 6.57244 2.60263 6.90803Q2.93821 7.24361 3.39808 7.43004Q3.85795 7.61648 4.2358 7.71591L5.26989 7.99432Q5.66761 8.09872 6.15732 8.28267Q6.64702 8.46662 7.09695 8.78232Q7.54687 9.09801 7.8402 9.5902Q8.13352 10.0824 8.13352 10.7983Q8.13352 11.6236 7.70348 12.2898Q7.27344 12.956 6.45064 13.3487Q5.62784 13.7415 4.45455 13.7415Q2.81392 13.7415 1.84943 12.9659Q0.884943 12.1903 0.795455 10.9375L2.06818 10.9375Q2.1179 11.5142 2.45845 11.8896Q2.79901 12.2649 3.32351 12.4464Q3.84801 12.6278 4.45455 12.6278Q5.16051 12.6278 5.7223 12.3967Q6.28409 12.1655 6.61222 11.7504Q6.94034 11.3352 6.94034 10.7784Q6.94034 10.2713 6.65696 9.95313Q6.37358 9.63494 5.91122 9.43608Q5.44886 9.23722 4.91193 9.08807L3.65909 8.73011Q2.46591 8.38707 1.76989 7.75071Q1.07386 7.11435 1.07386 6.08523Q1.07386 5.23011 1.53871 4.59126Q2.00355 3.95242 2.79155 3.59695Q3.57955 3.24148 4.55398 3.24148Q5.53835 3.24148 6.30398 3.59197Q7.0696 3.94247 7.51953 4.54901Q7.96946 5.15554 7.99432 5.92614L6.80114 5.92614ZM10.0028 13.5625L10.0028 5.92614L11.1761 5.92614L11.1761 13.5625L10.0028 13.5625ZM10.5994 4.65341Q10.2564 4.65341 10.0103 4.41974Q9.7642 4.18608 9.7642 3.85795Q9.7642 3.52983 10.0103 3.29616Q10.2564 3.0625 10.5994 3.0625Q10.9425 3.0625 11.1886 3.29616Q11.4347 3.52983 11.4347 3.85795Q11.4347 4.18608 11.1886 4.41974Q10.9425 4.65341 10.5994 4.65341ZM13.3239 13.5625L13.3239 5.92614L14.4574 5.92614L14.4574 7.11932L14.5568 7.11932Q14.7955 6.50781 15.3274 6.16726Q15.8594 5.82671 16.6051 5.8267Q17.3608 5.8267 17.8654 6.16726Q18.37 6.50781 18.6534 7.11932L18.733 7.11932Q19.0263 6.5277 19.6129 6.1772Q20.1996 5.82671 21.0199 5.8267Q22.044 5.8267 22.6953 6.46555Q23.3466 7.1044 23.3466 8.4517L23.3466 13.5625L22.1733 13.5625L22.1733 8.4517Q22.1733 7.60653 21.7109 7.24361Q21.2486 6.88068 20.6222 6.88068Q19.8168 6.88068 19.3743 7.36541Q18.9318 7.85014 18.9318 8.59091L18.9318 13.5625L17.7386 13.5625L17.7386 8.33239Q17.7386 7.68111 17.3161 7.28089Q16.8935 6.88068 16.2273 6.88068Q15.7699 6.88068 15.3746 7.12429Q14.9794 7.3679 14.7383 7.79794Q14.4972 8.22798 14.4972 8.78977L14.4972 13.5625L13.3239 13.5625ZM25.4943 16.4261L25.4943 5.92614L26.6278 5.92614L26.6278 7.1392L26.767 7.1392Q26.8963 6.94034 27.1275 6.62962Q27.3587 6.31889 27.7937 6.0728Q28.2287 5.8267 28.9744 5.8267Q29.9389 5.8267 30.6747 6.30895Q31.4105 6.79119 31.8232 7.67614Q32.2358 8.56108 32.2358 9.7642Q32.2358 10.9773 31.8232 11.8647Q31.4105 12.7521 30.6797 13.2369Q29.9489 13.7216 28.9943 13.7216Q28.2585 13.7216 27.8161 13.4755Q27.3736 13.2294 27.1349 12.9137Q26.8963 12.598 26.767 12.3892L26.6676 12.3892L26.6676 16.4261L25.4943 16.4261ZM26.6477 9.74432Q26.6477 11.0419 27.212 11.8548Q27.7763 12.6676 28.8352 12.6676Q29.571 12.6676 30.0657 12.2773Q30.5604 11.8871 30.8114 11.2234Q31.0625 10.5597 31.0625 9.74432Q31.0625 8.93892 30.8164 8.29013Q30.5703 7.64134 30.0756 7.26101Q29.581 6.88068 28.8352 6.88068Q27.7614 6.88068 27.2045 7.67116Q26.6477 8.46165 26.6477 9.74432ZM35.1989 3.38068L35.1989 13.5625L34.0256 13.5625L34.0256 3.38068L35.1989 3.38068ZM40.5483 13.7216Q39.4446 13.7216 38.6467 13.2319Q37.8487 12.7422 37.4187 11.8597Q36.9886 10.9773 36.9886 9.80398Q36.9886 8.63068 37.4187 7.73331Q37.8487 6.83594 38.6218 6.33132Q39.3949 5.82671 40.429 5.8267Q41.0256 5.8267 41.6072 6.02557Q42.1889 6.22443 42.6662 6.66939Q43.1435 7.11435 43.4268 7.84517Q43.7102 8.57599 43.7102 9.64489L43.7102 10.142L38.1669 10.142Q38.2067 11.3651 38.8604 12.0163Q39.5142 12.6676 40.5483 12.6676Q41.2393 12.6676 41.7365 12.3693Q42.2337 12.071 42.4574 11.4744L43.5909 11.7926Q43.3224 12.6577 42.517 13.1896Q41.7116 13.7216 40.5483 13.7216ZM38.1669 9.12784L42.517 9.12784Q42.517 8.15838 41.9503 7.51953Q41.3835 6.88068 40.429 6.88068Q39.7578 6.88068 39.2656 7.19389Q38.7734 7.5071 38.4901 8.02166Q38.2067 8.53622 38.1669 9.12784ZM55.1648 5.92614Q55.0753 5.17046 54.4389 4.75284Q53.8026 4.33523 52.8778 4.33523Q51.8636 4.33523 51.2472 4.81499Q50.6307 5.29474 50.6307 6.02557Q50.6307 6.57244 50.9663 6.90803Q51.3018 7.24361 51.7617 7.43004Q52.2216 7.61648 52.5994 7.71591L53.6335 7.99432Q54.0313 8.09872 54.521 8.28267Q55.0107 8.46662 55.4606 8.78232Q55.9105 9.09801 56.2038 9.5902Q56.4972 10.0824 56.4972 10.7983Q56.4972 11.6236 56.0671 12.2898Q55.6371 12.956 54.8143 13.3487Q53.9915 13.7415 52.8182 13.7415Q51.1776 13.7415 50.2131 12.9659Q49.2486 12.1903 49.1591 10.9375L50.4318 10.9375Q50.4815 11.5142 50.8221 11.8896Q51.1626 12.2649 51.6871 12.4464Q52.2116 12.6278 52.8182 12.6278Q53.5241 12.6278 54.0859 12.3967Q54.6477 12.1655 54.9759 11.7504Q55.304 11.3352 55.304 10.7784Q55.304 10.2713 55.0206 9.95313Q54.7372 9.63494 54.2749 9.43608Q53.8125 9.23722 53.2756 9.08807L52.0227 8.73011Q50.8295 8.38707 50.1335 7.75071Q49.4375 7.11435 49.4375 6.08523Q49.4375 5.23011 49.9023 4.59126Q50.3672 3.95242 51.1552 3.59695Q51.9432 3.24148 52.9176 3.24148Q53.902 3.24148 54.6676 3.59197Q55.4332 3.94247 55.8832 4.54901Q56.3331 5.15554 56.358 5.92614L55.1648 5.92614ZM61.4688 13.7216Q60.3949 13.7216 59.6193 13.2145Q58.8438 12.7074 58.4261 11.8175Q58.0085 10.9276 58.0085 9.78409Q58.0085 8.62074 58.4386 7.72834Q58.8686 6.83594 59.6417 6.33132Q60.4148 5.82671 61.4489 5.8267Q62.2543 5.8267 62.9006 6.125Q63.5469 6.4233 63.9595 6.96023Q64.3722 7.49716 64.4716 8.21307L63.2983 8.21307Q63.1641 7.69105 62.7042 7.28587Q62.2443 6.88068 61.4688 6.88068Q60.4396 6.88068 59.8107 7.66371Q59.1818 8.44673 59.1818 9.74432Q59.1818 11.0717 59.8033 11.8697Q60.4247 12.6676 61.4688 12.6676Q62.1548 12.6676 62.6445 12.3146Q63.1342 11.9616 63.2983 11.3352L64.4716 11.3352Q64.3722 12.0114 63.9819 12.5508Q63.5916 13.0902 62.9528 13.4059Q62.3139 13.7216 61.4688 13.7216ZM67.3551 8.96875L67.3551 13.5625L66.1818 13.5625L66.1818 3.38068L67.3551 3.38068L67.3551 7.11932L67.4545 7.11932Q67.723 6.5277 68.2624 6.1772Q68.8018 5.82671 69.7017 5.8267Q70.875 5.8267 71.5909 6.53267Q72.3068 7.23864 72.3068 8.71023L72.3068 13.5625L71.1335 13.5625L71.1335 8.78977Q71.1335 7.87997 70.6637 7.38033Q70.1939 6.88068 69.3636 6.88068Q68.4936 6.88068 67.9244 7.42507Q67.3551 7.96946 67.3551 8.96875ZM77.6563 13.7216Q76.5526 13.7216 75.7546 13.2319Q74.9567 12.7422 74.5266 11.8597Q74.0966 10.9773 74.0966 9.80398Q74.0966 8.63068 74.5266 7.73331Q74.9567 6.83594 75.7298 6.33132Q76.5028 5.82671 77.5369 5.8267Q78.1335 5.8267 78.7152 6.02557Q79.2969 6.22443 79.7741 6.66939Q80.2514 7.11435 80.5348 7.84517Q80.8182 8.57599 80.8182 9.64489L80.8182 10.142L75.2749 10.142Q75.3146 11.3651 75.9684 12.0163Q76.6222 12.6676 77.6563 12.6676Q78.3473 12.6676 78.8445 12.3693Q79.3416 12.071 79.5653 11.4744L80.6989 11.7926Q80.4304 12.6577 79.625 13.1896Q78.8196 13.7216 77.6563 13.7216ZM75.2749 9.12784L79.625 9.12784Q79.625 8.15838 79.0582 7.51953Q78.4915 6.88068 77.5369 6.88068Q76.8658 6.88068 76.3736 7.19389Q75.8814 7.5071 75.598 8.02166Q75.3146 8.53622 75.2749 9.12784ZM85.4915 13.7216Q84.5369 13.7216 83.8061 13.2369Q83.0753 12.7521 82.6626 11.8647Q82.25 10.9773 82.25 9.7642Q82.25 8.56108 82.6626 7.67614Q83.0753 6.79119 83.8111 6.30895Q84.5469 5.8267 85.5114 5.8267Q86.2571 5.8267 86.6921 6.0728Q87.1271 6.31889 87.3583 6.62962Q87.5895 6.94034 87.7188 7.1392L87.8182 7.1392L87.8182 3.38068L88.9915 3.38068L88.9915 13.5625L87.858 13.5625L87.858 12.3892L87.7188 12.3892Q87.5895 12.598 87.3509 12.9137Q87.1122 13.2294 86.6697 13.4755Q86.2273 13.7216 85.4915 13.7216ZM85.6506 12.6676Q86.7095 12.6676 87.2738 11.8548Q87.8381 11.0419 87.8381 9.74432Q87.8381 8.46165 87.2813 7.67116Q86.7244 6.88068 85.6506 6.88068Q84.9048 6.88068 84.4102 7.26101Q83.9155 7.64134 83.6694 8.29013Q83.4233 8.93892 83.4233 9.74432Q83.4233 10.5597 83.6744 11.2234Q83.9254 11.8871 84.4201 12.2773Q84.9148 12.6676 85.6506 12.6676ZM96.1108 10.4403L96.1108 5.92614L97.2841 5.92614L97.2841 13.5625L96.1108 13.5625L96.1108 12.2699L96.0313 12.2699Q95.7628 12.8516 95.196 13.2567Q94.6293 13.6619 93.7642 13.6619Q92.6903 13.6619 91.9943 12.951Q91.2983 12.2401 91.2983 10.7784L91.2983 5.92614L92.4716 5.92614L92.4716 10.6989Q92.4716 11.5341 92.9414 12.0313Q93.4112 12.5284 94.142 12.5284Q94.5795 12.5284 95.0344 12.3047Q95.4893 12.081 95.8001 11.6186Q96.1108 11.1563 96.1108 10.4403ZM100.605 3.38068L100.605 13.5625L99.4318 13.5625L99.4318 3.38068L100.605 3.38068ZM105.955 13.7216Q104.851 13.7216 104.053 13.2319Q103.255 12.7422 102.825 11.8597Q102.395 10.9773 102.395 9.80398Q102.395 8.63068 102.825 7.73331Q103.255 6.83594 104.028 6.33132Q104.801 5.82671 105.835 5.8267Q106.432 5.8267 107.013 6.02557Q107.595 6.22443 108.072 6.66939Q108.55 7.11435 108.833 7.84517Q109.116 8.57599 109.116 9.64489L109.116 10.142L103.573 10.142Q103.613 11.3651 104.267 12.0163Q104.92 12.6676 105.955 12.6676Q106.646 12.6676 107.143 12.3693Q107.64 12.071 107.864 11.4744L108.997 11.7926Q108.729 12.6577 107.923 13.1896Q107.118 13.7216 105.955 13.7216ZM103.573 9.12784L107.923 9.12784Q107.923 8.15838 107.357 7.51953Q106.79 6.88068 105.835 6.88068Q105.164 6.88068 104.672 7.19389Q104.18 7.5071 103.896 8.02166Q103.613 8.53622 103.573 9.12784ZM123.196 6.5625L121.963 6.5625Q121.814 5.85653 121.391 5.37429Q120.969 4.89205 120.372 4.64347Q119.776 4.39489 119.099 4.39489Q118.175 4.39489 117.426 4.86222Q116.678 5.32955 116.238 6.23935Q115.798 7.14915 115.798 8.47159Q115.798 9.79403 116.238 10.7038Q116.678 11.6136 117.426 12.081Q118.175 12.5483 119.099 12.5483Q119.776 12.5483 120.372 12.2997Q120.969 12.0511 121.391 11.5689Q121.814 11.0866 121.963 10.3807L123.196 10.3807Q123.007 11.4247 122.425 12.168Q121.844 12.9112 120.984 13.3065Q120.124 13.7017 119.099 13.7017Q117.797 13.7017 116.783 13.0653Q115.768 12.429 115.187 11.2557Q114.605 10.0824 114.605 8.47159Q114.605 6.8608 115.187 5.6875Q115.768 4.51421 116.783 3.87784Q117.797 3.24148 119.099 3.24148Q120.124 3.24148 120.984 3.63672Q121.844 4.03196 122.425 4.77521Q123.007 5.51847 123.196 6.5625ZM128.128 13.7216Q127.094 13.7216 126.316 13.2294Q125.538 12.7372 125.103 11.8523Q124.668 10.9673 124.668 9.78409Q124.668 8.59091 125.103 7.70099Q125.538 6.81108 126.316 6.31889Q127.094 5.8267 128.128 5.8267Q129.162 5.8267 129.94 6.31889Q130.718 6.81108 131.153 7.70099Q131.588 8.59091 131.588 9.78409Q131.588 10.9673 131.153 11.8523Q130.718 12.7372 129.94 13.2294Q129.162 13.7216 128.128 13.7216ZM128.128 12.6676Q128.913 12.6676 129.42 12.2649Q129.928 11.8622 130.171 11.206Q130.415 10.5497 130.415 9.78409Q130.415 9.01847 130.171 8.35724Q129.928 7.69602 129.42 7.28835Q128.913 6.88068 128.128 6.88068Q127.342 6.88068 126.835 7.28835Q126.328 7.69602 126.085 8.35724Q125.841 9.01847 125.841 9.78409Q125.841 10.5497 126.085 11.206Q126.328 11.8622 126.835 12.2649Q127.342 12.6676 128.128 12.6676ZM134.551 8.96875L134.551 13.5625L133.378 13.5625L133.378 5.92614L134.511 5.92614L134.511 7.11932L134.611 7.11932Q134.879 6.53764 135.426 6.18217Q135.973 5.82671 136.838 5.8267Q137.996 5.8267 138.71 6.53764Q139.423 7.24858 139.423 8.71023L139.423 13.5625L138.25 13.5625L138.25 8.78977Q138.25 7.88991 137.783 7.3853Q137.315 6.88068 136.5 6.88068Q135.66 6.88068 135.105 7.42507Q134.551 7.96946 134.551 8.96875ZM144.972 5.92614L144.972 6.92045L143.261 6.92045L143.261 13.5625L142.088 13.5625L142.088 6.92045L140.855 6.92045L140.855 5.92614L142.088 5.92614L142.088 4.87216Q142.088 4.21591 142.396 3.77841Q142.705 3.34091 143.197 3.12216Q143.689 2.90341 144.236 2.90341Q144.668 2.90341 144.942 2.97301Q145.215 3.04261 145.349 3.10227L145.011 4.11648Q144.922 4.08665 144.765 4.0419Q144.609 3.99716 144.355 3.99716Q143.773 3.99716 143.517 4.29048Q143.261 4.58381 143.261 5.15057L143.261 5.92614L144.972 5.92614ZM147.795 3.38068L147.795 13.5625L146.622 13.5625L146.622 3.38068L147.795 3.38068ZM149.943 13.5625L149.943 5.92614L151.116 5.92614L151.116 13.5625L149.943 13.5625ZM150.54 4.65341Q150.197 4.65341 149.951 4.41974Q149.705 4.18608 149.705 3.85795Q149.705 3.52983 149.951 3.29616Q150.197 3.0625 150.54 3.0625Q150.883 3.0625 151.129 3.29616Q151.375 3.52983 151.375 3.85795Q151.375 4.18608 151.129 4.41974Q150.883 4.65341 150.54 4.65341ZM156.366 13.7216Q155.293 13.7216 154.517 13.2145Q153.741 12.7074 153.324 11.8175Q152.906 10.9276 152.906 9.78409Q152.906 8.62074 153.336 7.72834Q153.766 6.83594 154.539 6.33132Q155.313 5.82671 156.347 5.8267Q157.152 5.8267 157.798 6.125Q158.445 6.4233 158.857 6.96023Q159.27 7.49716 159.369 8.21307L158.196 8.21307Q158.062 7.69105 157.602 7.28587Q157.142 6.88068 156.366 6.88068Q155.337 6.88068 154.708 7.66371Q154.08 8.44673 154.08 9.74432Q154.08 11.0717 154.701 11.8697Q155.322 12.6676 156.366 12.6676Q157.053 12.6676 157.542 12.3146Q158.032 11.9616 158.196 11.3352L159.369 11.3352Q159.27 12.0114 158.88 12.5508Q158.489 13.0902 157.851 13.4059Q157.212 13.7216 156.366 13.7216ZM164.401 5.92614L164.401 6.92045L162.77 6.92045L162.77 11.375Q162.77 11.8722 162.917 12.1183Q163.063 12.3643 163.294 12.4464Q163.526 12.5284 163.784 12.5284Q163.978 12.5284 164.102 12.506Q164.227 12.4837 164.301 12.4688L164.54 13.5227Q164.42 13.5675 164.207 13.6147Q163.993 13.6619 163.665 13.6619Q163.168 13.6619 162.693 13.4482Q162.218 13.2344 161.907 12.7969Q161.597 12.3594 161.597 11.6932L161.597 6.92045L160.443 6.92045L160.443 5.92614L161.597 5.92614L161.597 4.09659L162.77 4.09659L162.77 5.92614L164.401 5.92614ZM170.267 13.5625L170.267 3.38068L173.707 3.38068Q174.901 3.38068 175.666 3.78587Q176.432 4.19105 176.8 4.89702Q177.168 5.60298 177.168 6.50284Q177.168 7.51705 176.703 8.27024Q176.238 9.02344 175.264 9.35653L177.565 13.5625L176.134 13.5625L173.986 9.58026Q173.862 9.58523 173.727 9.58523L171.5 9.58523L171.5 13.5625L170.267 13.5625ZM171.5 8.47159L173.688 8.47159Q174.911 8.47159 175.433 7.9446Q175.955 7.41761 175.955 6.50284Q175.955 5.5831 175.43 5.02876Q174.906 4.47443 173.668 4.47443L171.5 4.47443L171.5 8.47159ZM182.179 13.7216Q181.075 13.7216 180.277 13.2319Q179.479 12.7422 179.049 11.8597Q178.619 10.9773 178.619 9.80398Q178.619 8.63068 179.049 7.73331Q179.479 6.83594 180.253 6.33132Q181.026 5.82671 182.06 5.8267Q182.656 5.8267 183.238 6.02557Q183.82 6.22443 184.297 6.66939Q184.774 7.11435 185.058 7.84517Q185.341 8.57599 185.341 9.64489L185.341 10.142L179.798 10.142Q179.837 11.3651 180.491 12.0163Q181.145 12.6676 182.179 12.6676Q182.87 12.6676 183.367 12.3693Q183.864 12.071 184.088 11.4744L185.222 11.7926Q184.953 12.6577 184.148 13.1896Q183.342 13.7216 182.179 13.7216ZM179.798 9.12784L184.148 9.12784Q184.148 8.15838 183.581 7.51953Q183.014 6.88068 182.06 6.88068Q181.389 6.88068 180.896 7.19389Q180.404 7.5071 180.121 8.02166Q179.837 8.53622 179.798 9.12784ZM192.54 7.63636L191.486 7.93466Q191.332 7.53693 190.969 7.18892Q190.606 6.84091 189.835 6.84091Q189.134 6.84091 188.669 7.16158Q188.205 7.48224 188.205 7.97443Q188.205 8.41193 188.523 8.66548Q188.841 8.91903 189.517 9.08807L190.651 9.36648Q192.679 9.86364 192.679 11.4347Q192.679 12.0909 192.304 12.608Q191.928 13.125 191.257 13.4233Q190.586 13.7216 189.696 13.7216Q188.528 13.7216 187.762 13.2145Q186.996 12.7074 186.793 11.733L187.906 11.4545Q188.219 12.6875 189.676 12.6875Q190.496 12.6875 190.981 12.337Q191.466 11.9865 191.466 11.4943Q191.466 10.6839 190.332 10.4205L189.06 10.1222Q188.011 9.87358 187.521 9.34908Q187.031 8.82457 187.031 8.03409Q187.031 7.38778 187.397 6.89063Q187.762 6.39347 188.396 6.11008Q189.03 5.82671 189.835 5.8267Q190.969 5.8267 191.618 6.32386Q192.266 6.82102 192.54 7.63636ZM197.551 13.7216Q196.517 13.7216 195.739 13.2294Q194.961 12.7372 194.526 11.8523Q194.091 10.9673 194.091 9.78409Q194.091 8.59091 194.526 7.70099Q194.961 6.81108 195.739 6.31889Q196.517 5.8267 197.551 5.8267Q198.585 5.8267 199.363 6.31889Q200.141 6.81108 200.576 7.70099Q201.011 8.59091 201.011 9.78409Q201.011 10.9673 200.576 11.8523Q200.141 12.7372 199.363 13.2294Q198.585 13.7216 197.551 13.7216ZM197.551 12.6676Q198.337 12.6676 198.844 12.2649Q199.351 11.8622 199.594 11.206Q199.838 10.5497 199.838 9.78409Q199.838 9.01847 199.594 8.35724Q199.351 7.69602 198.844 7.28835Q198.337 6.88068 197.551 6.88068Q196.766 6.88068 196.259 7.28835Q195.751 7.69602 195.508 8.35724Q195.264 9.01847 195.264 9.78409Q195.264 10.5497 195.508 11.206Q195.751 11.8622 196.259 12.2649Q196.766 12.6676 197.551 12.6676ZM203.974 3.38068L203.974 13.5625L202.801 13.5625L202.801 3.38068L203.974 3.38068ZM212.367 5.92614L209.543 13.5625L208.349 13.5625L205.526 5.92614L206.798 5.92614L208.906 12.0114L208.986 12.0114L211.094 5.92614L212.367 5.92614ZM216.841 13.7216Q215.737 13.7216 214.939 13.2319Q214.141 12.7422 213.711 11.8597Q213.281 10.9773 213.281 9.80398Q213.281 8.63068 213.711 7.73331Q214.141 6.83594 214.914 6.33132Q215.688 5.82671 216.722 5.8267Q217.318 5.8267 217.9 6.02557Q218.482 6.22443 218.959 6.66939Q219.436 7.11435 219.719 7.84517Q220.003 8.57599 220.003 9.64489L220.003 10.142L214.46 10.142Q214.499 11.3651 215.153 12.0163Q215.807 12.6676 216.841 12.6676Q217.532 12.6676 218.029 12.3693Q218.526 12.071 218.75 11.4744L219.884 11.7926Q219.615 12.6577 218.81 13.1896Q218.004 13.7216 216.841 13.7216ZM214.46 9.12784L218.81 9.12784Q218.81 8.15838 218.243 7.51953Q217.676 6.88068 216.722 6.88068Q216.05 6.88068 215.558 7.19389Q215.066 7.5071 214.783 8.02166Q214.499 8.53622 214.46 9.12784ZM221.793 13.5625L221.793 5.92614L222.926 5.92614L222.926 7.07955L223.006 7.07955Q223.215 6.51278 223.761 6.1598Q224.308 5.80682 224.994 5.80682Q225.124 5.80682 225.318 5.81179Q225.511 5.81676 225.611 5.8267L225.611 7.01989Q225.551 7.00497 225.34 6.97266Q225.129 6.94034 224.895 6.94034Q224.06 6.94034 223.513 7.44744Q222.966 7.95455 222.966 8.73011L222.966 13.5625L221.793 13.5625Z" />
      </g>
    </g>
    <path d="M947.077 163L766.928 163L464 926L669.145 926L855.444 401.05L963.734 729.532L1172 729.532L947.077 163L947.077 163Z" id="Shape-Copy" fill="#776BE7" stroke="none" clip-path="url(#clip_1)" />
  </g>
</svg>